<svg xmlns="http://www.w3.org/2000/svg" xmlns:xlink="http://www.w3.org/1999/xlink" version="1.1" id="图层_1" x="0px" y="0px" width="164.4688850899326" height="185.73562479887" viewBox="1.899998664855957 1.6924842596054077 51.099998474121094 57.70751190185547" style="enable-background:new 0 0 54.7 61.5;" xml:space="preserve" class="style-removed" preserveAspectRatio="none" data-parent="shape_JZfIU9uh3q">

<g>
	<path d="M19.9,14.3c0.6,0,1-0.4,1-1s-0.4-1-1-1s-1,0.5-1,1S19.3,14.3,19.9,14.3z" fill="#5778d8" stroke-width="0"/>
	<path d="M26.8,20c0.6,0,1-0.4,1-1c0-0.6-0.4-1-1-1s-1,0.5-1,1C25.8,19.6,26.2,20,26.8,20z" fill="#5778d8" stroke-width="0"/>
	<path d="M20.6,18.8c-0.3-0.1-1.3-0.3-1.3-1.5c0-0.1-0.1-0.2-0.2-0.2c-0.1,0-0.2,0.1-0.2,0.2c0,1.4,1,1.9,1.6,2   c0.1,0.2,0.2,0.6,0.7,0.9c0.3,0.2,0.7,0.3,1.1,0.3c0.2,0,0.4,0,0.6-0.1c0.1,0,0.2-0.1,0.2-0.3s-0.1-0.2-0.3-0.2   c-0.6,0.1-1,0-1.4-0.2c-0.3-0.2-0.4-0.5-0.5-0.7l0.6-0.7c0,0,0.1,0,0.1,0l0.8,0l0.4,0c0.3,0,0.5-0.4,0.3-0.7l-0.5-0.5L22,16.6   c-0.2-0.2-0.6-0.1-0.7,0.2l0,0.4L21.3,18c0,0,0,0,0,0L20.6,18.8z" fill="#5778d8" stroke-width="0"/>
	<path d="M51.3,22.8c-0.1-0.5-0.2-0.9-0.4-1.3c-0.1-0.5-0.3-0.9-0.4-1.3c-0.1-0.4-0.3-0.7-0.4-1   c1.6-0.1,2.9-1.5,2.9-3.1c0-1.7-1.4-3.2-3.2-3.2c-1.1,0-2,0.6-2.6,1.4c-4.4-6.4-11.6-10-20.2-10c-0.4,0-0.7,0-1,0   c-0.5-1.1-1.1-1.9-1.8-2.4c-2.5-1.5-9.9,5.6-10.7,6.3C6.3,12.9,1.9,20.8,1.9,29.4c0,3.7,0.6,8.1,2.7,12.1c-0.2,0.1-0.3,0.1-0.5,0.2   c-0.9,0.5-1.5,1.3-1.7,2.2c-0.5,2,0.6,4,2.5,4.5c0.3,0.1,0.7,0.1,1,0.1c0.6,0,1.2-0.2,1.8-0.5c0.4-0.2,0.8-0.6,1.1-1   c2.4,2.3,5.5,4.3,9.6,5.8c0,0,0,0,0,0c2.5,0.9,5.1,1.4,7.8,1.5c-0.1,1.4,0.1,4.2,1.6,5c0.2,0.1,0.3,0.1,0.5,0.1   c0.3,0,0.6-0.1,1-0.2c3.6-1.3,15.6-9.9,18.5-16.2c2.7-4.1,4.1-8.9,4.1-13.8C52.2,27.1,51.9,24.9,51.3,22.8   C51.3,22.8,51.3,22.8,51.3,22.8z M34.2,46C34.2,46,34.2,46,34.2,46c-0.1,0-0.2-0.1-0.2-0.2c0-1.2-0.9-1.5-1.2-1.6L32,44.9   c0,0,0,0,0,0L32,45.7l0,0.4c0,0.3-0.4,0.5-0.7,0.2l-0.5-0.6l-0.5-0.6c-0.2-0.2-0.1-0.6,0.3-0.7l0.4,0l0.8,0c0,0,0.1,0,0.1,0   l0.6-0.6c0-0.2-0.2-0.5-0.5-0.7c-0.3-0.2-0.8-0.3-1.4-0.2c-0.1,0-0.2-0.1-0.3-0.2c0-0.1,0.1-0.2,0.2-0.3c0.7-0.1,1.3,0,1.7,0.3   c0.4,0.3,0.6,0.7,0.6,0.9c0.7,0.1,1.6,0.6,1.6,2C34.4,45.9,34.3,46,34.2,46z M34.4,49.7c0,0.6-0.5,1-1,1c-0.6,0-1-0.5-1-1   c0-0.6,0.5-1,1-1C33.9,48.7,34.4,49.1,34.4,49.7z M9,45.2c-0.2-0.3-0.6-0.1-0.7,0.2c0,0,0,0,0,0.1c-0.1,0.2-0.2,0.4-0.3,0.6   c-0.2,0.3-0.5,0.6-0.8,0.8c-0.5,0.3-1.2,0.4-1.8,0.2c-0.6-0.2-1.1-0.6-1.4-1.1c-0.3-0.5-0.4-1.2-0.2-1.8c0.2-0.6,0.6-1.1,1.1-1.4   c0.2-0.1,0.3-0.2,0.5-0.2c0.2-0.1,0.4-0.1,0.7-0.1c0.5,0,0.7-0.3,0.6-0.6c-0.1-0.2-0.3-0.5-0.4-0.7c-2.2-4-2.8-8.2-2.8-11.9   c0-8.1,4.1-15.6,10.9-20c0.1,0,0.1-0.1,0.2-0.1c0.6-0.6,1.5-1.4,2.4-2.2c2.5,1.9,7.8,1.4,8.8,1.3c0.1,0.1,0.2,0.3,0.4,0.3   c0,0,1.9,0.7,3.6,2.6c0.2,0.3,0.5,0.5,0.7,0.9c0.2,0.2,0.4,0.3,0.7,0.3c0.3-0.1,0.9-0.2,1.5-0.2c1.1-0.1,2.4,0,3,0.6   c0.1,0.9-1.4,5-4.1,8.3c-1.4,1.8-3.7,4-6.1,4c0,0,0,0-0.1,0c-0.4,0-0.6,0.3-0.7,0.6c0,0.1,0,0.2,0,0.3c0.1,0.2,0.3,0.4,0.5,0.5   c0.1,0,3.1,0.6,6.1-0.9c0,0,0,0,0,0c1-0.5,1.9-0.6,2.4-0.2c0.4,0.3,0.6,1,0.4,1.8c-0.3,1.4-0.7,3-8.2,3.4c-2,0.1-3.5,0.3-4.7,0.7   c-1.1,0.3-1.8,0.7-2.4,1.2c-1.2,1-1.4,2.2-1.3,3.5c0,0.3,0.1,0.5,0.1,0.7c0,0,0,0.1,0,0.1c0,0.1,0,0.1,0.1,0.2   c0.2,0.4,0.5,0.7,0.7,0.9c1.2,0.8,3,0.3,4,0c1-0.3,2.3-0.8,3.9-0.8c-0.8,0.4-1.7,1-2.6,1.7c0,0,0,0,0,0c-0.1,0.1-0.2,0.2-0.3,0.3   c0,0,0,0-0.1,0c-0.1,0.1-0.2,0.2-0.3,0.3c0,0-0.1,0-0.1,0.1c-0.1,0.1-0.2,0.2-0.3,0.3c0,0-0.1,0.1-0.1,0.1   c-0.1,0.1-0.2,0.2-0.2,0.3c0,0-0.1,0.1-0.1,0.1c-0.1,0.1-0.1,0.2-0.2,0.3c0,0-0.1,0.1-0.1,0.1c-0.1,0.1-0.1,0.2-0.2,0.3   c0,0.1-0.1,0.1-0.1,0.2c-0.1,0.1-0.1,0.2-0.2,0.3c0,0.1-0.1,0.1-0.1,0.2c-0.1,0.1-0.1,0.2-0.2,0.3c0,0.1-0.1,0.1-0.1,0.2   C21,41.9,21,42,20.9,42.1c0,0.1-0.1,0.1-0.1,0.2c-0.1,0.1-0.1,0.2-0.2,0.3c0,0.1-0.1,0.2-0.1,0.2c0,0.1-0.1,0.2-0.1,0.3   c0,0.1-0.1,0.2-0.1,0.3c0,0.1-0.1,0.2-0.1,0.3c0,0.1-0.1,0.2-0.1,0.3c0,0.1-0.1,0.2-0.1,0.3c0,0.1-0.1,0.2-0.1,0.3   c0,0.1-0.1,0.2-0.1,0.3c0,0.1-0.1,0.2-0.1,0.3c0,0.1-0.1,0.2-0.1,0.3c0,0.1-0.1,0.2-0.1,0.4c0,0.1-0.1,0.2-0.1,0.2   c0,0.1-0.1,0.3-0.1,0.4c0,0.1,0,0.1-0.1,0.2c0,0.1-0.1,0.3-0.1,0.5c0,0.1,0,0.1,0,0.2c0,0.2-0.1,0.4-0.1,0.5c0,0,0,0,0,0   c-0.2,0.9-0.4,1.9-0.5,2.9c0,0,0,0.1,0,0.1c0,0.2,0,0.4,0,0.6c0,0.1,0,0.1,0,0.2c-3.7-1.5-6.4-3.4-8.6-5.5   C9.3,45.6,9.2,45.4,9,45.2z M26.5,44.9c-0.6,0-1-0.5-1-1c0-0.6,0.5-1,1-1c0.6,0,1,0.5,1,1C27.5,44.4,27.1,44.9,26.5,44.9z    M29.2,58.4c-0.5,0.2-1.1,0-1.3-0.5c-0.4-0.7-0.7-1.8-0.6-3.7c0.6-0.3,1.4-0.7,2.5-0.9c2.7-0.4,4.8,1,5.4,1.4   C35.2,54.7,32.9,56.8,29.2,58.4z" fill="#5778d8" stroke-width="0"/>
</g>
</svg>